<?xml version="1.0" encoding="UTF-8"?>
<svg id="Layer_1" xmlns="http://www.w3.org/2000/svg" version="1.1" viewBox="0 0 355 72">
  <!-- Generator: Adobe Illustrator 29.1.0, SVG Export Plug-In . SVG Version: 2.1.0 Build 142)  -->
  <defs>
    <style>
      .st0 {
        fill: #4c5a77;
      }

      .st1 {
        fill: #010101;
      }

      .st2 {
        fill: #cd7c8a;
      }

      .st3 {
        fill: #231f20;
      }

      .st4 {
        fill: #3b6693;
      }

      .st5 {
        fill: #0d2445;
      }

      .st6 {
        fill: #b1bad0;
      }

      .st7 {
        fill: #1e2944;
      }

      .st8 {
        fill: #dbdddd;
      }

      .st9 {
        fill: #b8b9bb;
      }

      .st10 {
        fill: #c34a54;
      }

      .st11 {
        fill: #ffc808;
      }

      .st12 {
        fill: #a5a7aa;
      }
    </style>
  </defs>
  <g>
    <rect class="st9" x="22.5" y="54" width="15.5" height="13.3"/>
    <g>
      <path class="st11" d="M23.6,54.6c-.3-4.2-2.2-8.3-5.4-11.4-3.5-3.3-5.5-8.1-5.5-12.9,0-9.7,7.6-17.7,17.1-17.7s.3,0,.5,0c.2,0,.4,0,.5,0,9.4,0,17,7.9,17,17.7s-2,9.6-5.5,12.9c-3.2,3.1-5.1,7.2-5.4,11.4h-13.4Z"/>
      <path class="st1" d="M30.8,13.7c8.8,0,15.9,7.4,15.9,16.6s-1.9,9-5.1,12.1c-3.1,3-5.1,7-5.7,11.1h-11.4c-.5-4.1-2.5-8.1-5.7-11.1-3.2-3.1-5.1-7.6-5.1-12.1s1.7-8.6,4.7-11.7c3-3.1,7-4.8,11.2-4.8.2,0,.3,0,.5,0h0s0,0,0,0c.2,0,.3,0,.5,0M30.8,11.5c-.2,0-.3,0-.5,0-.2,0-.3,0-.5,0-10,0-18.2,8.4-18.2,18.8s2.2,10.3,5.8,13.7c3.1,3,5.1,7.3,5.1,11.7h15.5c0-4.4,2-8.7,5.1-11.7,3.6-3.4,5.8-8.3,5.8-13.7,0-10.4-8.1-18.8-18.2-18.8h0Z"/>
    </g>
    <g>
      <polygon class="st8" points="32.5 39.3 30.2 39.3 28 39.3 27 56.6 30.2 56.6 33.4 56.6 32.5 39.3"/>
      <polygon class="st12" points="30.2 36.7 25.1 36.7 27 39.3 30.2 39.3 33.5 39.3 35.3 36.7 30.2 36.7"/>
      <polygon class="st10" points="30.2 33 24.1 33 24.1 36.7 30.2 36.7 36.4 36.7 36.4 33 30.2 33"/>
      <polygon class="st2" points="30.2 30.9 23.7 30.9 23.7 33 30.2 33 36.8 33 36.8 30.9 30.2 30.9"/>
      <path class="st12" d="M32.7,27.7h-4.8c-4.1,0-5.4,2.8-5.4,2.8v.5h15.7v-.5s-1.3-2.8-5.4-2.8Z"/>
      <polygon class="st1" points="30.2 26 27.9 26 27.9 27.7 30.2 27.7 32.6 27.7 32.6 26 30.2 26"/>
      <polygon class="st12" points="30.2 24.1 29.8 24.1 29.8 26 30.2 26 30.7 26 30.7 24.1 30.2 24.1"/>
      <polygon class="st1" points="30.2 23.7 29 23.7 29 24.4 30.2 24.4 31.5 24.4 31.5 23.7 30.2 23.7"/>
      <polygon class="st12" points="30.2 14.9 30 14.9 30 23.7 30.2 23.7 30.5 23.7 30.5 14.9 30.2 14.9"/>
    </g>
    <g>
      <rect class="st7" x="27.9" y="26" width="2.3" height="1.7"/>
      <rect class="st0" x="29.8" y="24.1" width=".5" height="1.8"/>
      <rect class="st5" x="29" y="23.7" width="1.2" height=".7"/>
      <rect class="st4" x="30" y="14.9" width=".2" height="8.8"/>
      <polygon class="st12" points="30.2 36.7 25.1 36.7 27 39.3 30.2 39.3 33.5 39.3 35.3 36.7 30.2 36.7"/>
      <polygon class="st10" points="30.2 33 24.1 33 24.1 36.7 30.2 36.7 36.4 36.7 36.4 33 30.2 33"/>
      <polygon class="st2" points="30.2 30.9 23.7 30.9 23.7 33 30.2 33 36.8 33 36.8 30.9 30.2 30.9"/>
      <path class="st6" d="M32.7,27.7h-4.8c-4.1,0-5.4,2.8-5.4,2.8v.5h15.7v-.5s-1.3-2.8-5.4-2.8Z"/>
      <rect class="st7" x="30.2" y="26" width="2.3" height="1.7" transform="translate(62.8 53.6) rotate(180)"/>
      <rect class="st0" x="30.2" y="24.1" width=".5" height="1.8" transform="translate(61 50.1) rotate(180)"/>
      <rect class="st5" x="30.2" y="23.7" width="1.2" height=".7" transform="translate(61.7 48.2) rotate(180)"/>
      <rect class="st4" x="30.2" y="14.9" width=".2" height="8.8" transform="translate(60.7 38.7) rotate(180)"/>
      <polygon class="st9" points="32.5 39.3 30.2 39.3 28 39.3 27 56.6 30.2 56.6 33.4 56.6 32.5 39.3"/>
    </g>
    <path class="st1" d="M38,67.8h-3.2l-.9,1.7c-.7,1.3-2.1,2.1-3.6,2.1h0c-1.5,0-2.9-.8-3.6-2.1l-.9-1.7h-3.2v-2.3h15.5v2.3Z"/>
    <path class="st1" d="M38,63.8h-15.5v-2.4h15.5v2.4ZM38,57.3h-15.5v2.4h15.5v-2.4ZM59.4,39.2l-6.8-1.8.5-1.9,6.8,1.8-.5,1.9ZM1.5,39.2l-.5-1.9,6.8-1.8.5,1.9-6.8,1.8ZM53.2,25.4l-.5-1.9,6.8-1.8.5,1.9-6.8,1.8ZM7.8,25.4l-6.8-1.8.5-1.9,6.8,1.8-.5,1.9ZM47.6,14.7l-1.4-1.4,5-5,1.4,1.4-5,5ZM13.3,14.7l-5-5,1.4-1.4,5,5-1.4,1.4ZM37.4,8.3l-1.9-.5,1.8-6.8,1.9.5-1.8,6.8ZM23.5,8.3l-1.8-6.8,1.9-.5,1.8,6.8-1.9.5Z"/>
    <path class="st1" d="M30.8,13.7c8.8,0,15.9,7.4,15.9,16.6s-1.9,9-5.1,12.1c-3.1,3-5.1,7-5.7,11.1h-11.4c-.5-4.1-2.5-8.1-5.7-11.1-3.2-3.1-5.1-7.6-5.1-12.1s1.7-8.6,4.7-11.7c3-3.1,7-4.8,11.2-4.8.2,0,.3,0,.5,0h0s0,0,0,0c.2,0,.3,0,.5,0M30.8,11.5c-.2,0-.3,0-.5,0-.2,0-.3,0-.5,0-10,0-18.2,8.4-18.2,18.8s2.2,10.3,5.8,13.7c3.1,3,5.1,7.3,5.1,11.7h15.5c0-4.4,2-8.7,5.1-11.7,3.6-3.4,5.8-8.3,5.8-13.7,0-10.4-8.1-18.8-18.2-18.8h0Z"/>
  </g>
  <g>
    <path class="st3" d="M84.1,40.2c0,2.3-.8,4.1-2.5,5.5s-4,2-7,2-5.2-.5-7.3-1.5v-5.1c1.7.8,3.2,1.3,4.4,1.6s2.3.5,3.3.5,2.1-.2,2.8-.7,1-1.1,1-2-.1-1-.4-1.3-.7-.8-1.2-1.1-1.7-.9-3.3-1.7c-1.6-.7-2.7-1.4-3.5-2.1s-1.4-1.5-1.9-2.4-.7-2-.7-3.2c0-2.3.8-4.1,2.3-5.4s3.7-2,6.4-2,2.6.2,3.8.5,2.5.8,3.8,1.3l-1.8,4.2c-1.4-.6-2.5-1-3.4-1.2s-1.8-.3-2.6-.3-1.8.2-2.4.7-.8,1.1-.8,1.9.1.9.3,1.3.6.7,1.1,1,1.6.9,3.5,1.8c2.4,1.1,4,2.3,4.9,3.5s1.3,2.6,1.3,4.2Z"/>
    <path class="st3" d="M98.9,47.3l-6.2-20.2h-.2c.2,4.1.3,6.8.3,8.2v12h-4.9v-25.7h7.4l6.1,19.7h.1l6.5-19.7h7.4v25.7h-5.1v-12.2c0-.6,0-1.2,0-2s0-2.7.2-6h-.2l-6.6,20.1h-5Z"/>
    <path class="st3" d="M137,47.3l-1.9-6.1h-9.4l-1.9,6.1h-5.9l9.1-25.8h6.7l9.1,25.8h-5.9ZM133.9,36.6c-1.7-5.5-2.7-8.7-2.9-9.4s-.4-1.3-.5-1.7c-.4,1.5-1.5,5.2-3.3,11.1h6.7Z"/>
    <path class="st3" d="M150.8,37.5v9.9h-5.4v-25.7h7.5c3.5,0,6.1.6,7.8,1.9s2.5,3.2,2.5,5.8-.4,2.9-1.2,4-2,2.1-3.5,2.8c3.9,5.8,6.4,9.5,7.6,11.2h-6l-6.1-9.9h-2.9ZM150.8,33h1.8c1.7,0,3-.3,3.8-.9s1.2-1.5,1.2-2.7-.4-2.1-1.3-2.6-2.1-.8-3.9-.8h-1.7v6.9Z"/>
    <path class="st3" d="M178.4,47.3h-5.4v-21.2h-7v-4.5h19.4v4.5h-7v21.2Z"/>
    <path class="st3" d="M208.1,25.8c-2.1,0-3.6.8-4.8,2.3s-1.7,3.7-1.7,6.4c0,5.7,2.2,8.6,6.5,8.6s4-.5,6.6-1.4v4.6c-2.1.9-4.5,1.3-7.1,1.3-3.7,0-6.6-1.1-8.6-3.4s-3-5.5-3-9.8.5-5,1.5-7,2.4-3.6,4.2-4.6,4-1.6,6.4-1.6,5,.6,7.5,1.8l-1.8,4.4c-1-.5-1.9-.9-2.9-1.2s-1.9-.5-2.9-.5Z"/>
    <path class="st3" d="M235.2,47.3l-1.9-6.1h-9.4l-1.9,6.1h-5.9l9.1-25.8h6.7l9.1,25.8h-5.9ZM232,36.6c-1.7-5.5-2.7-8.7-2.9-9.4s-.4-1.3-.5-1.7c-.4,1.5-1.5,5.2-3.3,11.1h6.7Z"/>
    <path class="st3" d="M243.5,47.3v-25.7h5.4v21.2h10.4v4.5h-15.9Z"/>
    <path class="st3" d="M272.9,32.9h10.2v13.3c-1.7.5-3.2.9-4.7,1.1s-3,.3-4.5.3c-3.9,0-6.8-1.1-8.9-3.4s-3.1-5.6-3.1-9.8,1.2-7.4,3.6-9.7,5.7-3.5,9.9-3.5,5.2.5,7.6,1.6l-1.8,4.4c-1.9-.9-3.8-1.4-5.9-1.4s-4.2.8-5.7,2.4-2.1,3.7-2.1,6.4.6,4.9,1.7,6.4,2.8,2.2,5,2.2,2.3-.1,3.5-.4v-5.4h-4.9v-4.5Z"/>
    <path class="st3" d="M304.2,47.3l-1.9-6.1h-9.4l-1.9,6.1h-5.9l9.1-25.8h6.7l9.1,25.8h-5.9ZM301.1,36.6c-1.7-5.5-2.7-8.7-2.9-9.4s-.4-1.3-.5-1.7c-.4,1.5-1.5,5.2-3.3,11.1h6.7Z"/>
    <path class="st3" d="M318.1,37.5v9.9h-5.4v-25.7h7.5c3.5,0,6.1.6,7.8,1.9s2.5,3.2,2.5,5.8-.4,2.9-1.2,4-2,2.1-3.5,2.8c3.9,5.8,6.4,9.5,7.6,11.2h-6l-6.1-9.9h-2.9ZM318.1,33h1.8c1.7,0,3-.3,3.8-.9s1.2-1.5,1.2-2.7-.4-2.1-1.3-2.6-2.1-.8-3.9-.8h-1.7v6.9Z"/>
    <path class="st3" d="M343.7,32.2l5.4-10.6h5.9l-8.5,15.7v10h-5.4v-9.8l-8.5-15.9h5.9l5.3,10.6Z"/>
  </g>
  <g>
    <path class="st3" d="M75.4,63.4c0,1.4-.5,2.5-1.5,3.2-1,.8-2.4,1.2-4.1,1.2s-3.3-.2-4.3-.7v-1.8c.6.3,1.3.5,2.1.6.8.2,1.5.2,2.3.2,1.2,0,2.1-.2,2.8-.7.6-.5.9-1.1.9-1.9s-.1-1-.3-1.3c-.2-.3-.6-.7-1.1-1-.5-.3-1.3-.6-2.3-1-1.5-.5-2.5-1.1-3.1-1.9-.6-.7-.9-1.7-.9-2.8s.5-2.2,1.4-2.9c.9-.7,2.1-1.1,3.6-1.1s3,.3,4.3.9l-.6,1.6c-1.3-.5-2.6-.8-3.8-.8s-1.7.2-2.3.6c-.5.4-.8,1-.8,1.7s0,1,.3,1.3c.2.3.5.7,1,1s1.2.6,2.2,1c1.6.6,2.8,1.2,3.4,1.9.6.7.9,1.5.9,2.6Z"/>
    <path class="st3" d="M88.1,67.6l-2-5h-6.3l-1.9,5h-1.8l6.2-15.8h1.5l6.2,15.8h-1.9ZM85.5,60.9l-1.8-4.9c-.2-.6-.5-1.4-.7-2.3-.2.7-.4,1.4-.7,2.3l-1.8,4.9h5.1Z"/>
    <path class="st3" d="M93.5,67.6h-1.8v-15.7h8.8v1.6h-6.9v5.7h6.5v1.6h-6.5v6.7Z"/>
    <path class="st3" d="M111.3,67.6h-8.8v-15.7h8.8v1.6h-6.9v5.1h6.5v1.6h-6.5v5.8h6.9v1.6Z"/>
    <path class="st3" d="M116.2,61.1v6.5h-1.8v-15.7h4.3c1.9,0,3.3.4,4.3,1.1.9.7,1.4,1.8,1.4,3.3s-1.1,3.5-3.2,4.2l4.3,7.1h-2.2l-3.8-6.5h-3.3ZM116.2,59.5h2.5c1.3,0,2.2-.3,2.8-.8.6-.5.9-1.3.9-2.3s-.3-1.8-.9-2.2c-.6-.5-1.6-.7-2.9-.7h-2.4v6Z"/>
    <path class="st3" d="M139.5,53.3c-1.7,0-3.1.6-4.1,1.7-1,1.1-1.5,2.7-1.5,4.7s.5,3.6,1.4,4.8c1,1.1,2.3,1.7,4.1,1.7s2.3-.2,3.7-.6v1.6c-1.1.4-2.4.6-4,.6-2.3,0-4.1-.7-5.4-2.1-1.3-1.4-1.9-3.4-1.9-6s.3-3,.9-4.3c.6-1.2,1.5-2.2,2.6-2.8,1.1-.7,2.5-1,4-1s3.1.3,4.3.9l-.8,1.6c-1.2-.6-2.4-.8-3.6-.8Z"/>
    <path class="st3" d="M159.9,59.7c0,2.5-.6,4.5-1.9,5.9-1.3,1.4-3,2.2-5.3,2.2s-4.1-.7-5.4-2.1c-1.3-1.4-1.9-3.4-1.9-6s.6-4.5,1.9-5.9,3.1-2.1,5.4-2.1,4,.7,5.3,2.1c1.3,1.4,1.9,3.4,1.9,5.9ZM147.4,59.7c0,2.1.5,3.7,1.4,4.8.9,1.1,2.2,1.6,3.9,1.6s3.1-.5,3.9-1.6,1.3-2.7,1.3-4.8-.4-3.7-1.3-4.8c-.9-1.1-2.2-1.6-3.9-1.6s-3.1.5-4,1.6c-.9,1.1-1.4,2.7-1.4,4.8Z"/>
    <path class="st3" d="M169.9,67.6l-5.3-13.9h0c.1,1.1.2,2.4.2,3.9v10h-1.7v-15.7h2.8l5,13h0l5-13h2.7v15.7h-1.8v-10.1c0-1.2,0-2.4.2-3.8h0l-5.4,13.9h-1.5Z"/>
    <path class="st3" d="M189.3,67.6l-5.3-13.9h0c.1,1.1.2,2.4.2,3.9v10h-1.7v-15.7h2.8l5,13h0l5-13h2.7v15.7h-1.8v-10.1c0-1.2,0-2.4.2-3.8h0l-5.4,13.9h-1.5Z"/>
    <path class="st3" d="M213.6,51.9v10.2c0,1.8-.5,3.2-1.6,4.2-1.1,1-2.6,1.5-4.5,1.5s-3.4-.5-4.4-1.5c-1-1-1.6-2.4-1.6-4.3v-10.1h1.8v10.2c0,1.3.4,2.3,1.1,3,.7.7,1.8,1.1,3.2,1.1s2.3-.4,3.1-1.1c.7-.7,1.1-1.7,1.1-3v-10.2h1.8Z"/>
    <path class="st3" d="M229.6,67.6h-2.1l-8.6-13.2h0c.1,1.5.2,3,.2,4.3v8.9h-1.7v-15.7h2.1l8.6,13.1h0c0-.2,0-.8,0-1.9,0-1,0-1.8,0-2.3v-9h1.7v15.7Z"/>
    <path class="st3" d="M233.5,67.6v-15.7h1.8v15.7h-1.8Z"/>
    <path class="st3" d="M244,67.6h-1.8v-14.1h-5v-1.6h11.8v1.6h-5v14.1Z"/>
    <path class="st3" d="M250.9,67.6v-15.7h1.8v15.7h-1.8Z"/>
    <path class="st3" d="M265.4,67.6h-8.8v-15.7h8.8v1.6h-6.9v5.1h6.5v1.6h-6.5v5.8h6.9v1.6Z"/>
    <path class="st3" d="M277.3,63.4c0,1.4-.5,2.5-1.5,3.2s-2.4,1.2-4.1,1.2-3.3-.2-4.3-.7v-1.8c.6.3,1.3.5,2.1.6.8.2,1.5.2,2.3.2,1.2,0,2.1-.2,2.8-.7s.9-1.1.9-1.9-.1-1-.3-1.3c-.2-.3-.6-.7-1.1-1-.5-.3-1.3-.6-2.3-1-1.5-.5-2.5-1.1-3.1-1.9-.6-.7-.9-1.7-.9-2.8s.5-2.2,1.4-2.9c.9-.7,2.1-1.1,3.6-1.1s3,.3,4.3.9l-.6,1.6c-1.3-.5-2.6-.8-3.8-.8s-1.7.2-2.3.6c-.5.4-.8,1-.8,1.7s.1,1,.3,1.3c.2.3.5.7,1,1,.5.3,1.2.6,2.2,1,1.6.6,2.8,1.2,3.4,1.9.6.7.9,1.5.9,2.6Z"/>
  </g>
</svg>