<?xml version="1.0" encoding="UTF-8"?>
<svg id="Layer_1" xmlns="http://www.w3.org/2000/svg" version="1.1" viewBox="0 0 82.8 89.5">
  <!-- Generator: Adobe Illustrator 29.1.0, SVG Export Plug-In . SVG Version: 2.1.0 Build 142)  -->
  <defs>
    <style>
      .st0 {
        fill: #4b5a76;
      }

      .st1 {
        fill: #3a6592;
      }

      .st2 {
        fill: #0d2445;
      }

      .st3 {
        fill: #1e2944;
      }

      .st4 {
        fill: #cc7b89;
      }

      .st5 {
        fill: #a5a7aa;
      }

      .st6 {
        fill: #b1b9d0;
      }

      .st7 {
        fill: #b7b9bb;
      }

      .st8 {
        fill: #c14953;
      }

      .st9 {
        fill: #ffc700;
      }

      .st10 {
        fill: #dbdcdd;
      }
    </style>
  </defs>
  <rect class="st7" x="34" y="61.8" width="15.5" height="13.3"/>
  <g>
    <path class="st9" d="M35.1,62.4c-.3-4.2-2.2-8.3-5.4-11.4-3.5-3.3-5.5-8.1-5.5-12.9,0-9.7,7.6-17.7,17-17.7s.3,0,.5,0c.2,0,.4,0,.5,0,9.4,0,17.1,7.9,17.1,17.7s-2,9.6-5.5,12.9c-3.2,3.1-5.1,7.2-5.4,11.4h-13.4Z"/>
    <path d="M42.3,21.5c8.8,0,15.9,7.4,15.9,16.6s-1.9,9-5.1,12.1c-3.1,3-5.1,7-5.7,11.1h-11.4c-.5-4.1-2.5-8.1-5.7-11.1-3.2-3.1-5.1-7.6-5.1-12.1s1.7-8.6,4.7-11.7c3-3.1,7-4.8,11.2-4.8.2,0,.3,0,.5,0h0s0,0,0,0c.2,0,.3,0,.5,0M42.3,19.3c-.2,0-.3,0-.5,0-.2,0-.3,0-.5,0-10,0-18.2,8.4-18.2,18.8s2.2,10.3,5.8,13.7c3.1,3,5.1,7.3,5.1,11.7h15.5c0-4.4,2-8.7,5.1-11.7,3.6-3.4,5.8-8.3,5.8-13.7,0-10.4-8.1-18.8-18.2-18.8h0Z"/>
  </g>
  <g>
    <polygon class="st10" points="44.1 47.1 41.8 47.1 39.5 47.1 38.6 64.4 41.8 64.4 45 64.4 44.1 47.1"/>
    <polygon class="st5" points="41.8 44.5 36.7 44.5 38.6 47.1 41.8 47.1 45 47.1 46.9 44.5 41.8 44.5"/>
    <polygon class="st8" points="41.8 40.8 35.7 40.8 35.7 44.5 41.8 44.5 47.9 44.5 47.9 40.8 41.8 40.8"/>
    <polygon class="st4" points="41.8 38.7 35.2 38.7 35.2 40.8 41.8 40.8 48.4 40.8 48.4 38.7 41.8 38.7"/>
    <path class="st5" d="M44.2,35.4h-4.8c-4.1,0-5.4,2.8-5.4,2.8v.5h15.7v-.5s-1.3-2.8-5.4-2.8Z"/>
    <polygon points="41.8 33.7 39.5 33.7 39.5 35.4 41.8 35.4 44.1 35.4 44.1 33.7 41.8 33.7"/>
    <polygon class="st5" points="41.8 31.9 41.3 31.9 41.3 33.7 41.8 33.7 42.3 33.7 42.3 31.9 41.8 31.9"/>
    <polygon points="41.8 31.5 40.6 31.5 40.6 32.2 41.8 32.2 43 32.2 43 31.5 41.8 31.5"/>
    <polygon class="st5" points="41.8 22.7 41.6 22.7 41.6 31.5 41.8 31.5 42.1 31.5 42.1 22.7 41.8 22.7"/>
  </g>
  <g>
    <rect class="st3" x="39.5" y="33.7" width="2.3" height="1.7"/>
    <rect class="st0" x="41.3" y="31.9" width=".5" height="1.8"/>
    <rect class="st2" x="40.6" y="31.5" width="1.2" height=".7"/>
    <rect class="st1" x="41.6" y="22.7" width=".2" height="8.8"/>
    <polygon class="st5" points="41.8 44.5 36.7 44.5 38.6 47.1 41.8 47.1 45 47.1 46.9 44.5 41.8 44.5"/>
    <polygon class="st8" points="41.8 40.8 35.7 40.8 35.7 44.5 41.8 44.5 47.9 44.5 47.9 40.8 41.8 40.8"/>
    <polygon class="st4" points="41.8 38.7 35.2 38.7 35.2 40.8 41.8 40.8 48.4 40.8 48.4 38.7 41.8 38.7"/>
    <path class="st6" d="M44.2,35.4h-4.8c-4.1,0-5.4,2.8-5.4,2.8v.5h15.7v-.5s-1.3-2.8-5.4-2.8Z"/>
    <rect class="st3" x="41.8" y="33.7" width="2.3" height="1.7" transform="translate(85.9 69.2) rotate(180)"/>
    <rect class="st0" x="41.8" y="31.9" width=".5" height="1.8" transform="translate(84.1 65.7) rotate(180)"/>
    <rect class="st2" x="41.8" y="31.5" width="1.2" height=".7" transform="translate(84.9 63.8) rotate(180)"/>
    <rect class="st1" x="41.8" y="22.7" width=".2" height="8.8" transform="translate(83.9 54.3) rotate(180)"/>
    <polygon class="st7" points="44.1 47.1 41.8 47.1 39.5 47.1 38.6 64.4 41.8 64.4 45 64.4 44.1 47.1"/>
  </g>
  <path d="M49.6,75.6h-3.2l-.9,1.7c-.7,1.3-2.1,2.1-3.6,2.1h0c-1.5,0-2.9-.8-3.6-2.1l-.9-1.7h-3.2v-2.3h15.5v2.3Z"/>
  <path d="M49.6,71.6h-15.5v-2.4h15.5v2.4ZM49.6,65.1h-15.5v2.4h15.5v-2.4ZM71,47l-6.8-1.8.5-1.9,6.8,1.8-.5,1.9ZM13.1,47l-.5-1.9,6.8-1.8.5,1.9-6.8,1.8ZM64.7,33.2l-.5-1.9,6.8-1.8.5,1.9-6.8,1.8ZM19.3,33.2l-6.8-1.8.5-1.9,6.8,1.8-.5,1.9ZM59.2,22.5l-1.4-1.4,5-5,1.4,1.4-5,5ZM24.9,22.5l-5-5,1.4-1.4,5,5-1.4,1.4ZM49,16.1l-1.9-.5,1.8-6.8,1.9.5-1.8,6.8ZM35.1,16.1l-1.8-6.8,1.9-.5,1.8,6.8-1.9.5Z"/>
  <path d="M42.3,21.5c8.8,0,15.9,7.4,15.9,16.6s-1.9,9-5.1,12.1c-3.1,3-5.1,7-5.7,11.1h-11.4c-.5-4.1-2.5-8.1-5.7-11.1-3.2-3.1-5.1-7.6-5.1-12.1s1.7-8.6,4.7-11.7c3-3.1,7-4.8,11.2-4.8.2,0,.3,0,.5,0h0s0,0,0,0c.2,0,.3,0,.5,0M42.3,19.3c-.2,0-.3,0-.5,0-.2,0-.3,0-.5,0-10,0-18.2,8.4-18.2,18.8s2.2,10.3,5.8,13.7c3.1,3,5.1,7.3,5.1,11.7h15.5c0-4.4,2-8.7,5.1-11.7,3.6-3.4,5.8-8.3,5.8-13.7,0-10.4-8.1-18.8-18.2-18.8h0Z"/>
</svg>